<svg version="1.1" id="Layer_1" xmlns="http://www.w3.org/2000/svg" xmlns:xlink="http://www.w3.org/1999/xlink" x="0px" y="0px"
	 width="100%" viewBox="0 0 1024 1024" enable-background="new 0 0 1024 1024" xml:space="preserve">
<path fill="#F2EDE7" opacity="1.000000" stroke="none" 
	d="
M589.000000,1025.000000 
	C392.666656,1025.000000 196.833328,1025.000000 1.000000,1025.000000 
	C1.000000,683.666687 1.000000,342.333344 1.000000,1.000000 
	C342.333344,1.000000 683.666687,1.000000 1025.000000,1.000000 
	C1025.000000,342.333344 1025.000000,683.666687 1025.000000,1025.000000 
	C879.833313,1025.000000 734.666687,1025.000000 589.000000,1025.000000 
M266.701324,562.093689 
	C266.877930,561.775208 267.054565,561.456787 267.156830,561.191101 
	C267.156830,561.191101 267.233398,561.240540 267.835785,560.977783 
	C278.922302,545.063354 278.387909,528.283936 271.175415,511.216187 
	C269.877533,508.144836 267.118591,505.690918 264.996643,502.994781 
	C264.996643,502.994781 265.046021,502.967529 264.855713,502.331238 
	C258.980408,496.217651 251.646576,491.993561 243.453995,491.478577 
	C228.046051,490.509949 212.535263,490.370544 197.103012,490.909912 
	C188.386612,491.214569 182.151443,498.769806 182.131134,507.459473 
	C182.055252,539.932007 182.110062,572.405579 182.325882,604.877441 
	C182.391068,614.683716 189.289978,621.159607 198.810043,621.144714 
	C207.493103,621.131104 214.352509,613.976501 214.508057,604.555359 
	C214.623489,597.563538 214.502350,590.567932 214.494293,583.573975 
	C214.490570,580.346497 215.186035,577.565002 219.750641,576.900879 
	C220.835861,576.801453 221.921097,576.702026 223.923523,576.790955 
	C228.745605,576.636536 233.759155,577.264832 238.344650,576.143188 
	C245.129517,574.483459 251.610413,571.581238 258.129883,569.147522 
	C258.129883,569.147522 258.144531,569.255676 258.824402,569.162170 
	C260.301910,567.858459 261.779449,566.554688 263.216858,565.171631 
	C263.216858,565.171631 263.156647,565.237061 263.711945,565.123779 
	C263.890076,564.812622 264.068237,564.501465 264.134735,564.190247 
	C264.134735,564.190247 264.210663,564.272095 264.770508,564.178589 
	C264.937988,563.857727 265.105499,563.536804 265.138916,563.119934 
	C265.138916,563.119934 265.220764,563.263123 265.766907,563.131287 
	C265.927917,562.804626 266.088898,562.477966 266.136139,562.129700 
	C266.136139,562.129700 266.156860,562.243591 266.701324,562.093689 
M809.761719,559.907104 
	C809.754883,572.177856 809.665222,584.449463 809.804504,596.718567 
	C809.835754,599.472656 810.667542,602.217529 811.183960,605.667847 
	C813.843140,612.156677 818.084290,617.959290 824.984619,619.027954 
	C833.724243,620.381470 842.859436,620.624756 851.654846,619.713745 
	C858.611206,618.993225 862.652100,611.082642 861.445007,603.972046 
	C860.285339,597.140808 855.767883,594.169739 847.373230,594.718140 
	C846.874390,594.750732 846.376404,594.799927 845.877197,594.823425 
	C840.191589,595.090332 838.999390,594.036926 838.941528,588.444763 
	C838.867371,581.278992 838.886902,574.112366 838.846313,566.946167 
	C838.784180,555.990784 838.776978,555.990906 849.528687,554.206665 
	C856.497559,553.050232 860.662903,547.648865 860.266235,540.283020 
	C859.891846,533.331787 855.074890,528.675720 847.966980,528.433167 
	C846.803650,528.393433 845.616577,528.370300 844.473145,528.549011 
	C840.461121,529.175842 838.485840,527.887207 838.908447,523.475830 
	C839.193054,520.505676 839.000549,517.479187 838.883789,514.483276 
	C838.565002,506.300842 832.476746,500.321350 824.507446,500.278015 
	C816.551697,500.234741 810.297363,506.242310 809.980896,514.338135 
	C809.857300,517.500000 809.824829,520.675598 809.967651,523.835144 
	C810.132874,527.489380 808.562317,528.917114 804.919250,528.867065 
	C802.309875,528.831238 799.502136,528.978760 797.114624,529.902222 
	C791.468567,532.086060 788.820312,537.924500 790.042969,544.323364 
	C791.197144,550.363892 796.287598,554.614441 802.929260,554.665222 
	C806.308289,554.691101 809.413147,554.562317 809.761719,559.907104 
M499.725342,526.010925 
	C497.842194,551.423096 495.768494,576.824097 494.266968,602.258789 
	C494.022186,606.405579 495.426178,611.243469 497.620300,614.805847 
	C501.201385,620.620178 509.238953,622.661011 515.891357,620.773499 
	C522.903259,618.783875 527.230530,613.433105 527.861694,605.273010 
	C528.863525,592.320923 529.549866,579.344421 530.546814,566.391907 
	C530.667114,564.829651 531.886780,563.352051 532.596863,561.835266 
	C533.779968,563.070312 535.323364,564.116394 536.086731,565.571594 
	C540.570557,574.119568 544.909119,582.744751 549.222046,591.381104 
	C551.861938,596.667419 555.472168,600.335754 561.917603,600.138855 
	C568.021667,599.952332 571.625549,596.502136 574.170227,591.374573 
	C578.312256,583.028259 582.450439,574.677368 586.787415,566.432190 
	C587.889282,564.337463 589.734619,562.633911 591.238342,560.750610 
	C591.783142,560.966553 592.328003,561.182495 592.872803,561.398499 
	C593.243958,563.770569 593.768433,566.130249 593.960632,568.516724 
	C594.989929,581.298584 595.819214,594.097595 596.953979,606.869629 
	C597.678467,615.023132 604.102539,620.871033 612.236206,621.274231 
	C622.205994,621.768555 629.769470,614.271851 629.125977,603.479736 
	C627.331970,573.390564 625.103943,543.327393 623.121399,513.249146 
	C622.394226,502.217438 617.517334,495.371735 608.453247,493.096558 
	C598.627991,490.630280 589.989136,494.405151 584.333557,503.746490 
	C582.265015,507.163177 580.330261,510.664673 578.433960,514.181091 
	C574.010315,522.383789 569.711670,530.654419 565.233398,538.826904 
	C562.804443,543.259521 560.749451,543.226990 558.178833,538.933899 
	C557.667053,538.079224 557.284241,537.148499 556.813171,536.268127 
	C550.766418,524.967712 544.941101,513.540588 538.588013,502.414948 
	C533.965271,494.319702 525.727356,491.302399 516.693848,493.515167 
	C507.508575,495.765106 501.691986,502.218872 500.894440,511.136627 
	C500.479034,515.781128 500.166565,520.434875 499.725342,526.010925 
M485.235596,550.761597 
	C485.574036,549.302979 485.957397,547.853149 486.243500,546.384338 
	C487.888214,537.941223 483.289948,530.211609 475.456177,528.212769 
	C467.580872,526.203308 459.447571,530.607727 456.713654,538.468384 
	C455.951416,540.660034 455.485748,542.956482 454.915009,545.212646 
	C453.079254,552.469666 451.324158,559.748352 449.358978,566.970032 
	C449.067688,568.040405 447.810944,568.848083 447.000793,569.777283 
	C446.214905,568.840332 445.247498,567.998047 444.695648,566.939087 
	C444.174103,565.938354 444.093109,564.709045 443.811737,563.581909 
	C441.755798,555.345947 439.957245,547.034302 437.567017,538.896484 
	C435.257660,531.033997 429.780731,527.517761 421.799164,527.940918 
	C415.204803,528.290527 410.124451,532.150269 408.085938,539.143799 
	C405.526001,547.925903 403.496124,556.861572 401.022034,565.670532 
	C400.590332,567.207581 399.095428,568.445923 398.091553,569.822266 
	C397.124207,568.417419 395.686737,567.139526 395.267700,565.586670 
	C392.970428,557.073730 391.094757,548.445801 388.743225,539.949036 
	C386.166199,530.637512 378.847290,526.141968 370.243408,528.182556 
	C361.756042,530.195435 356.997345,537.864258 359.669800,547.235107 
	C365.556122,567.875366 371.813965,588.419067 378.421967,608.839783 
	C381.246185,617.567383 388.211731,621.920227 396.175690,621.551819 
	C405.482300,621.121277 411.172485,616.399841 413.886810,606.803284 
	C415.291199,601.838013 416.382568,596.764526 418.124725,591.923157 
	C418.935211,589.671021 420.958893,587.855408 422.432587,585.841919 
	C423.917328,587.789185 425.969238,589.527283 426.778961,591.723328 
	C429.078033,597.958923 430.666046,604.454956 432.919983,610.709351 
	C435.066803,616.666504 439.613007,620.083191 445.863953,621.112610 
	C456.111450,622.800110 464.411835,617.761230 467.728729,607.344360 
	C473.635895,588.792542 479.267700,570.153015 485.235596,550.761597 
M317.792816,618.355225 
	C318.549011,618.006653 319.419495,617.797607 320.042908,617.286926 
	C324.247345,613.842834 327.524506,613.698425 331.528534,618.337036 
	C335.022583,622.384827 340.443298,622.671265 345.432129,620.398499 
	C349.964874,618.333557 353.004425,614.927612 352.987427,609.603455 
	C352.933624,592.776062 353.103790,575.941223 352.636597,559.124512 
	C352.368683,549.481262 348.921967,540.947632 340.914673,534.730347 
	C328.281464,524.921143 300.575287,525.875854 288.730347,536.648071 
	C283.445587,541.454163 282.111359,548.137634 285.417145,553.244385 
	C288.861267,558.564880 293.954254,559.262817 301.324585,556.011536 
	C305.699829,554.081482 310.276855,552.334412 314.942444,551.414490 
	C319.584106,550.499390 323.992615,551.824585 326.302368,556.630432 
	C328.015106,560.194092 326.309723,563.017395 322.371887,563.163330 
	C319.046448,563.286682 315.693481,562.903625 312.382843,563.149719 
	C298.770721,564.161926 287.487091,569.171265 281.228760,582.201843 
	C273.605591,598.074219 280.145569,616.135803 295.161011,620.677246 
	C302.698364,622.956970 309.994171,621.640991 317.792816,618.355225 
M639.135437,588.699036 
	C638.888489,590.848389 638.475586,592.993469 638.420959,595.147705 
	C638.012085,611.259644 649.008972,622.890869 664.111938,621.436584 
	C670.079590,620.862000 676.131775,618.808105 681.606628,616.266907 
	C685.537598,614.442444 687.695007,614.106628 690.762390,617.603638 
	C694.647827,622.033203 699.967834,622.587158 705.437195,620.368347 
	C710.883545,618.158813 713.226318,613.940491 713.186279,608.194885 
	C713.077087,592.537354 713.206909,576.874512 712.839539,561.223267 
	C712.440552,544.225708 703.774048,532.771790 688.714050,529.194153 
	C676.808777,526.366028 665.116882,527.625549 654.221313,533.222961 
	C650.808594,534.976257 647.757690,537.911255 645.300171,540.924438 
	C642.297852,544.605530 642.302673,549.054871 645.193787,552.983765 
	C648.117920,556.957642 652.149475,558.685791 657.039368,557.120178 
	C660.197571,556.109070 663.134888,554.256287 666.339905,553.579590 
	C670.815430,552.634583 675.467529,551.954956 680.005310,552.135559 
	C682.030457,552.216187 684.549622,554.267334 685.813232,556.125549 
	C688.514465,560.097961 686.519653,563.209534 681.654358,563.223938 
	C678.325073,563.233765 674.987122,562.953369 671.667358,563.108582 
	C654.899597,563.892822 644.026184,572.266846 639.135437,588.699036 
M467.626740,513.154541 
	C479.179474,516.036987 484.585571,513.535034 489.094086,502.637665 
	C499.533966,477.403748 528.996948,473.202118 546.035217,488.374207 
	C547.491455,489.670929 549.496582,490.351227 551.246643,491.317871 
	C551.781494,489.131683 552.420959,486.963501 552.801575,484.750793 
	C552.962524,483.815125 552.644592,482.771362 552.432495,481.801147 
	C549.408325,467.967346 540.614563,458.203949 528.740845,451.835114 
	C492.702850,432.505096 460.616089,459.117737 455.352875,489.132507 
	C453.518677,499.592468 457.260834,510.024719 467.626740,513.154541 
M786.182068,542.291687 
	C785.584595,533.240845 779.706055,527.234619 771.021484,528.389282 
	C765.803284,529.082947 760.834351,531.924622 755.860840,534.052063 
	C753.838501,534.917114 752.101196,536.448486 750.123535,537.749512 
	C749.279175,536.614197 748.760315,535.982727 748.312683,535.304321 
	C744.316528,529.249023 738.388672,526.771790 732.134949,528.560181 
	C725.765625,530.381592 721.994812,535.630493 722.002014,542.846802 
	C722.023193,563.994385 722.032471,585.142273 722.153259,606.289429 
	C722.203064,614.999573 728.109375,621.017761 736.328613,621.070740 
	C744.967041,621.126526 750.975830,615.255188 751.141418,606.348572 
	C751.317810,596.859436 751.148315,587.362549 751.406128,577.876587 
	C751.756897,564.967163 757.402649,559.161011 770.242432,558.061523 
	C779.317688,557.284485 784.384277,552.497375 786.182068,542.291687 
M120.904129,610.974243 
	C122.736916,607.654602 124.569695,604.335022 126.391167,601.035828 
	C130.386917,601.307800 134.196671,601.797852 138.000122,601.753174 
	C141.063812,601.717102 141.931915,602.972656 142.219116,605.829102 
	C142.600128,609.618774 143.097549,613.543030 144.504715,617.021240 
	C145.203156,618.747620 147.914429,620.307678 149.949066,620.686584 
	C152.687164,621.196533 155.666260,620.610229 158.509781,620.244629 
	C159.449860,620.123657 160.290497,619.229309 161.176636,618.688599 
	C160.555222,617.855591 160.035202,616.913452 159.286453,616.217468 
	C158.374481,615.369751 156.467697,614.816772 156.376846,613.984985 
	C155.699005,607.779419 153.955673,601.211487 155.298172,595.391968 
	C156.790253,588.924072 159.224197,582.759949 158.579559,575.952332 
	C158.305908,573.062500 159.807709,571.982666 162.548431,571.384766 
	C164.885666,570.874878 167.323761,569.783630 169.129013,568.254944 
	C170.283936,567.276917 170.916122,564.965393 170.711990,563.390503 
	C170.604340,562.559998 168.218918,561.987000 166.829330,561.371277 
	C165.499619,560.782227 163.972809,560.515564 162.799759,559.715515 
	C155.793610,554.937317 147.710312,557.764771 145.270660,565.937988 
	C142.409180,575.524353 139.569977,577.517578 129.782379,578.018311 
	C124.672745,578.279846 119.476379,578.899170 114.552612,580.224243 
	C108.307487,581.904907 105.603317,581.172363 102.719254,575.361572 
	C100.940544,571.777893 100.931618,568.477112 103.709305,565.170654 
	C104.593071,564.118591 104.303841,562.081177 104.551346,560.494629 
	C102.898384,560.904907 100.811661,560.838501 99.703087,561.847168 
	C98.340866,563.086609 97.406258,565.132324 96.970940,566.989807 
	C95.759018,572.161255 96.437737,577.797058 100.491516,580.855957 
	C106.413780,585.324707 106.147629,591.357361 106.992615,597.306946 
	C107.217056,598.887268 107.414490,601.120911 106.546921,602.094177 
	C102.840096,606.253052 104.002930,610.774597 104.931885,615.324768 
	C106.071495,620.906738 110.712837,622.335632 115.681145,618.524658 
	C113.778954,617.107544 110.804405,615.995728 110.390419,614.269714 
	C109.984062,612.575439 112.180252,610.257019 113.234314,608.212524 
	C114.927261,610.670105 115.265404,612.432617 115.673485,614.178772 
	C116.750916,618.788879 119.622276,621.026001 124.366470,620.308533 
	C125.638298,620.116211 126.793709,619.154175 128.002563,618.545471 
	C126.959824,617.734863 125.994583,616.383545 124.859001,616.220764 
	C122.081383,615.822632 120.498169,614.762146 120.904129,610.974243 
M893.450134,577.158508 
	C890.156677,574.130737 889.738464,570.451050 890.470215,566.211426 
	C890.943115,563.471252 890.559143,560.583069 890.559143,558.667358 
	C887.188354,558.074829 884.950623,557.681458 882.897766,557.320618 
	C880.004944,559.126770 876.764587,560.966309 873.737122,563.106995 
	C871.835815,564.451355 868.646118,566.545288 868.874207,567.777161 
	C869.306641,570.113220 871.371399,573.093445 873.502197,573.945679 
	C876.658691,575.208069 876.536255,576.605408 875.894470,579.183655 
	C874.158142,586.158630 874.271851,592.699402 878.342102,599.303101 
	C882.282776,605.696594 880.725159,611.841614 875.783936,617.203979 
	C875.349487,617.675354 876.191040,620.394653 876.733276,620.495667 
	C878.453674,620.816162 880.311279,620.322021 882.119202,620.276550 
	C883.457703,620.242859 884.950500,620.066895 886.116272,620.562256 
	C890.548950,622.445557 894.464417,620.189819 895.026367,615.290344 
	C895.231445,613.503357 895.637634,611.739319 895.952087,609.964844 
	C896.452026,609.808105 896.951965,609.651367 897.451904,609.494629 
	C898.877747,611.198425 900.303589,612.902283 901.993469,614.921692 
	C900.296692,616.042358 898.746887,617.065979 895.839478,618.986267 
	C898.721619,619.749084 900.364075,620.453125 902.047791,620.572144 
	C905.361206,620.806458 908.709961,620.548645 912.021912,620.793945 
	C919.225952,621.327759 921.106995,619.329773 919.822083,612.180176 
	C919.674744,611.360352 919.591370,610.518066 919.341125,609.729736 
	C918.175964,606.058777 918.657715,603.711426 923.256531,603.219177 
	C925.013245,603.031189 926.795044,601.430481 928.221741,600.103943 
	C933.191345,595.483276 933.011230,583.992737 927.837646,580.921326 
	C926.721069,580.258423 924.762085,581.014465 923.191162,581.116943 
	C923.533997,582.520142 923.720581,583.990784 924.285156,585.298218 
	C924.571228,585.960815 926.027588,586.257507 926.112915,586.842407 
	C926.430237,589.018921 927.197693,591.687073 926.287170,593.338684 
	C925.245117,595.229065 922.716309,596.504211 920.572021,597.459717 
	C919.918274,597.751038 917.699951,596.318054 917.389282,595.308350 
	C915.019592,587.605103 909.065796,584.029236 902.175049,581.319336 
	C899.414368,580.233704 896.766357,578.861511 893.450134,577.158508 
M514.104065,390.686157 
	C508.611145,400.536652 508.475311,410.656555 512.833740,420.878174 
	C517.276611,431.297791 524.900269,436.164032 534.373352,434.905823 
	C554.519592,432.230072 566.519409,406.601349 555.656250,389.450928 
	C546.315247,374.703674 525.804688,375.034790 514.104065,390.686157 
M496.104095,391.484833 
	C489.903442,381.772369 481.483856,376.778107 469.636383,378.935059 
	C460.055695,380.679352 452.660950,388.022552 450.352295,398.192596 
	C447.641815,410.132782 455.228668,425.488312 466.951721,431.789246 
	C479.175751,438.359436 488.344330,436.115784 495.210999,424.150269 
	C501.111847,413.867737 501.709290,403.033356 496.104095,391.484833 
M449.546112,430.946655 
	C439.707489,419.677399 424.302917,418.061005 414.614960,427.016937 
	C406.537994,434.483612 404.354858,443.556427 407.099548,453.783447 
	C410.031311,464.707336 417.450500,471.422821 428.499176,473.724426 
	C443.265442,476.800476 455.200836,468.971924 456.783752,455.322876 
	C457.807556,446.495117 455.430176,438.551208 449.546112,430.946655 
M588.704102,471.230133 
	C591.524902,469.206848 594.708679,467.538574 597.099121,465.094421 
	C604.564148,457.461853 607.025391,448.266296 603.819275,438.004608 
	C600.949829,428.820404 594.561829,423.243286 585.009949,421.474182 
	C571.360962,418.946198 557.322388,430.294586 555.009460,445.768127 
	C553.569824,455.399323 555.393433,464.351227 563.045105,470.717255 
	C570.788452,477.159698 579.563477,475.191589 588.704102,471.230133 
M904.904968,522.579102 
	C903.948547,517.650879 900.328552,517.878479 896.830933,518.767334 
	C887.591003,521.115662 881.733154,527.511169 877.752686,535.773804 
	C876.017456,539.375732 877.996704,541.867920 882.039551,540.694214 
	C887.083862,539.229797 892.417847,537.548218 896.541199,534.494507 
	C900.114746,531.848022 902.173584,527.156311 904.904968,522.579102 
M145.200821,535.355347 
	C150.004013,537.503906 154.715134,539.905090 159.646378,541.702332 
	C162.420593,542.713379 164.567337,541.694885 163.939331,537.981323 
	C162.827042,531.403931 151.874176,521.350281 145.303207,521.387146 
	C143.365387,521.398010 140.613937,522.267517 139.732925,523.678528 
	C138.854416,525.085571 139.336746,527.910706 140.167801,529.666626 
	C141.114243,531.666382 143.106827,533.170898 145.200821,535.355347 
M881.020935,516.535034 
	C883.338074,512.253723 886.384644,508.194275 887.772888,503.630402 
	C889.241882,498.801208 885.799683,496.429291 881.117981,498.307495 
	C873.040527,501.547974 868.201355,512.750793 871.679321,522.045593 
	C874.697571,520.302795 877.580261,518.638245 881.020935,516.535034 
M169.509323,519.158447 
	C169.452896,511.994659 166.860672,506.100311 160.448608,502.520630 
	C158.950027,501.683990 156.173721,501.324982 155.030487,502.166382 
	C153.859879,503.027893 153.348938,505.735321 153.633057,507.455811 
	C154.732162,514.111694 158.693604,518.885681 164.490173,522.201660 
	C167.184875,523.743164 168.920502,523.210449 169.509323,519.158447 
z"/>
<path fill="#3B6C74" opacity="1.000000" stroke="none" 
	d="
M499.766479,525.547668 
	C500.166565,520.434875 500.479034,515.781128 500.894440,511.136627 
	C501.691986,502.218872 507.508575,495.765106 516.693848,493.515167 
	C525.727356,491.302399 533.965271,494.319702 538.588013,502.414948 
	C544.941101,513.540588 550.766418,524.967712 556.813171,536.268127 
	C557.284241,537.148499 557.667053,538.079224 558.178833,538.933899 
	C560.749451,543.226990 562.804443,543.259521 565.233398,538.826904 
	C569.711670,530.654419 574.010315,522.383789 578.433960,514.181091 
	C580.330261,510.664673 582.265015,507.163177 584.333557,503.746490 
	C589.989136,494.405151 598.627991,490.630280 608.453247,493.096558 
	C617.517334,495.371735 622.394226,502.217438 623.121399,513.249146 
	C625.103943,543.327393 627.331970,573.390564 629.125977,603.479736 
	C629.769470,614.271851 622.205994,621.768555 612.236206,621.274231 
	C604.102539,620.871033 597.678467,615.023132 596.953979,606.869629 
	C595.819214,594.097595 594.989929,581.298584 593.960632,568.516724 
	C593.768433,566.130249 593.243958,563.770569 592.872803,561.398499 
	C592.328003,561.182495 591.783142,560.966553 591.238342,560.750610 
	C589.734619,562.633911 587.889282,564.337463 586.787415,566.432190 
	C582.450439,574.677368 578.312256,583.028259 574.170227,591.374573 
	C571.625549,596.502136 568.021667,599.952332 561.917603,600.138855 
	C555.472168,600.335754 551.861938,596.667419 549.222046,591.381104 
	C544.909119,582.744751 540.570557,574.119568 536.086731,565.571594 
	C535.323364,564.116394 533.779968,563.070312 532.596802,561.835266 
	C531.886780,563.352051 530.667114,564.829651 530.546814,566.391907 
	C529.549866,579.344421 528.863525,592.320923 527.861694,605.273010 
	C527.230530,613.433105 522.903259,618.783875 515.891357,620.773499 
	C509.238953,622.661011 501.201385,620.620178 497.620300,614.805847 
	C495.426178,611.243469 494.022186,606.405579 494.266968,602.258789 
	C495.768494,576.824097 497.842194,551.423096 499.766479,525.547668 
z"/>
<path fill="#E06438" opacity="1.000000" stroke="none" 
	d="
M485.125122,551.155884 
	C479.267700,570.153015 473.635895,588.792542 467.728729,607.344360 
	C464.411835,617.761230 456.111450,622.800110 445.863953,621.112610 
	C439.613007,620.083191 435.066803,616.666504 432.919983,610.709351 
	C430.666046,604.454956 429.078033,597.958923 426.778961,591.723328 
	C425.969238,589.527283 423.917328,587.789185 422.432617,585.841919 
	C420.958893,587.855408 418.935211,589.671021 418.124725,591.923157 
	C416.382568,596.764526 415.291199,601.838013 413.886810,606.803284 
	C411.172485,616.399841 405.482300,621.121277 396.175690,621.551819 
	C388.211731,621.920227 381.246185,617.567383 378.421967,608.839783 
	C371.813965,588.419067 365.556122,567.875366 359.669800,547.235107 
	C356.997345,537.864258 361.756042,530.195435 370.243408,528.182556 
	C378.847290,526.141968 386.166199,530.637512 388.743225,539.949036 
	C391.094757,548.445801 392.970428,557.073730 395.267700,565.586670 
	C395.686737,567.139526 397.124207,568.417419 398.091553,569.822266 
	C399.095428,568.445923 400.590332,567.207581 401.022034,565.670532 
	C403.496124,556.861572 405.526001,547.925903 408.085938,539.143799 
	C410.124451,532.150269 415.204803,528.290527 421.799164,527.940918 
	C429.780731,527.517761 435.257660,531.033997 437.567017,538.896484 
	C439.957245,547.034302 441.755798,555.345947 443.811737,563.581909 
	C444.093109,564.709045 444.174103,565.938354 444.695648,566.939087 
	C445.247498,567.998047 446.214905,568.840332 447.000793,569.777344 
	C447.810944,568.848083 449.067688,568.040405 449.358978,566.970032 
	C451.324158,559.748352 453.079254,552.469666 454.915009,545.212646 
	C455.485748,542.956482 455.951416,540.660034 456.713654,538.468384 
	C459.447571,530.607727 467.580872,526.203308 475.456177,528.212769 
	C483.289948,530.211609 487.888214,537.941223 486.243500,546.384338 
	C485.957397,547.853149 485.574036,549.302979 485.125122,551.155884 
z"/>
<path fill="#E26338" opacity="1.000000" stroke="none" 
	d="
M223.006317,576.602600 
	C221.921097,576.702026 220.835861,576.801453 219.069305,576.622192 
	C211.721329,575.643372 213.469925,581.303223 213.207458,584.244995 
	C212.573700,591.348267 213.112335,598.548340 212.960526,605.704712 
	C212.822800,612.197876 204.898407,619.910400 198.574448,619.973206 
	C192.270294,620.035889 184.058731,612.517822 184.042709,606.241638 
	C183.959366,573.607544 183.907715,540.972595 184.065048,508.339020 
	C184.111877,498.624634 191.253677,492.035736 200.979431,492.008728 
	C212.800964,491.975891 224.636856,491.663910 236.437592,492.160370 
	C241.414413,492.369781 246.510147,493.835968 251.200409,495.643036 
	C256.038177,497.506866 260.448608,500.479828 265.046021,502.967529 
	C265.046021,502.967529 264.996643,502.994781 265.044250,503.334869 
	C267.400330,507.973846 270.171478,512.093384 271.921051,516.608826 
	C275.587372,526.071106 275.270142,536.015625 273.394012,545.744690 
	C272.626068,549.726868 269.804108,553.292603 268.085876,557.123657 
	C267.525848,558.372253 267.502289,559.861389 267.233398,561.240540 
	C267.233398,561.240540 267.156830,561.191101 266.927368,561.249634 
	C266.517578,561.619995 266.337219,561.931824 266.156860,562.243591 
	C266.156860,562.243591 266.136139,562.129700 265.924744,562.220947 
	C265.549164,562.629150 265.384949,562.946106 265.220764,563.263123 
	C265.220764,563.263123 265.138916,563.119934 264.931030,563.225708 
	C264.552338,563.645081 264.381500,563.958557 264.210663,564.272095 
	C264.210663,564.272095 264.134735,564.190247 263.920563,564.255249 
	C263.523132,564.625854 263.339874,564.931458 263.156616,565.237061 
	C263.156647,565.237061 263.216858,565.171631 262.879303,565.162231 
	C261.075989,566.520447 259.610260,567.888062 258.144531,569.255676 
	C258.144531,569.255676 258.129883,569.147522 257.786652,569.150024 
	C247.352509,573.728149 236.693497,575.185120 225.717194,575.078796 
	C224.818573,575.070068 223.910172,576.070862 223.006317,576.602600 
M231.481705,549.203613 
	C240.443634,547.675293 245.451874,541.126404 244.831009,531.747864 
	C244.253876,523.029602 238.882919,518.068787 229.718979,517.856689 
	C226.720810,517.787231 223.709671,518.002502 220.722229,517.810730 
	C216.436752,517.535645 214.529556,519.525085 214.565689,523.657104 
	C214.626862,530.653320 214.698547,537.649475 214.783798,544.645447 
	C214.826691,548.165955 216.657822,549.806946 220.151840,549.670654 
	C223.645447,549.534424 227.139832,549.417542 231.481705,549.203613 
M189.433990,499.486389 
	C189.433990,499.486389 189.520599,499.439362 189.433990,499.486389 
z"/>
<path fill="#E06438" opacity="1.000000" stroke="none" 
	d="
M317.446411,618.521118 
	C309.994171,621.640991 302.698364,622.956970 295.161011,620.677246 
	C280.145569,616.135803 273.605591,598.074219 281.228760,582.201843 
	C287.487091,569.171265 298.770721,564.161926 312.382843,563.149719 
	C315.693481,562.903625 319.046448,563.286682 322.371887,563.163330 
	C326.309723,563.017395 328.015106,560.194092 326.302368,556.630432 
	C323.992615,551.824585 319.584106,550.499390 314.942444,551.414490 
	C310.276855,552.334412 305.699829,554.081482 301.324585,556.011536 
	C293.954254,559.262817 288.861267,558.564880 285.417145,553.244385 
	C282.111359,548.137634 283.445587,541.454163 288.730347,536.648071 
	C300.575287,525.875854 328.281464,524.921143 340.914673,534.730347 
	C348.921967,540.947632 352.368683,549.481262 352.636597,559.124512 
	C353.103790,575.941223 352.933624,592.776062 352.987427,609.603455 
	C353.004425,614.927612 349.964874,618.333557 345.432129,620.398499 
	C340.443298,622.671265 335.022583,622.384827 331.528534,618.337036 
	C327.524506,613.698425 324.247345,613.842834 320.042908,617.286926 
	C319.419495,617.797607 318.549011,618.006653 317.446411,618.521118 
M325.508301,593.782898 
	C327.587860,587.155701 325.857513,582.185181 320.891052,580.519531 
	C313.410706,578.010925 303.946442,585.074463 304.248169,592.940796 
	C304.528198,600.242981 310.920929,604.462097 317.465973,601.151794 
	C320.402405,599.666443 322.598724,596.717773 325.508301,593.782898 
z"/>
<path fill="#3B6B72" opacity="1.000000" stroke="none" 
	d="
M639.222046,588.294495 
	C644.026184,572.266846 654.899597,563.892822 671.667358,563.108582 
	C674.987122,562.953369 678.325073,563.233765 681.654358,563.223938 
	C686.519653,563.209534 688.514465,560.097961 685.813232,556.125549 
	C684.549622,554.267334 682.030457,552.216187 680.005310,552.135559 
	C675.467529,551.954956 670.815430,552.634583 666.339905,553.579590 
	C663.134888,554.256287 660.197571,556.109070 657.039368,557.120178 
	C652.149475,558.685791 648.117920,556.957642 645.193787,552.983765 
	C642.302673,549.054871 642.297852,544.605530 645.300171,540.924438 
	C647.757690,537.911255 650.808594,534.976257 654.221313,533.222961 
	C665.116882,527.625549 676.808777,526.366028 688.714050,529.194153 
	C703.774048,532.771790 712.440552,544.225708 712.839539,561.223267 
	C713.206909,576.874512 713.077087,592.537354 713.186279,608.194885 
	C713.226318,613.940491 710.883545,618.158813 705.437195,620.368347 
	C699.967834,622.587158 694.647827,622.033203 690.762390,617.603638 
	C687.695007,614.106628 685.537598,614.442444 681.606628,616.266907 
	C676.131775,618.808105 670.079590,620.862000 664.111938,621.436584 
	C649.008972,622.890869 638.012085,611.259644 638.420959,595.147705 
	C638.475586,592.993469 638.888489,590.848389 639.222046,588.294495 
M664.293945,591.721802 
	C665.128296,599.822754 668.761658,603.164978 675.523804,602.051819 
	C682.338684,600.929993 687.596985,593.207947 686.050842,586.480042 
	C685.128723,582.467590 682.690308,580.175659 678.403198,580.053406 
	C671.479980,579.855957 666.625244,583.599792 664.293945,591.721802 
z"/>
<path fill="#3B6C74" opacity="1.000000" stroke="none" 
	d="
M809.920288,558.977295 
	C809.413147,554.562317 806.308289,554.691101 802.929260,554.665222 
	C796.287598,554.614441 791.197144,550.363892 790.042969,544.323364 
	C788.820312,537.924500 791.468567,532.086060 797.114624,529.902222 
	C799.502136,528.978760 802.309875,528.831238 804.919250,528.867065 
	C808.562317,528.917114 810.132874,527.489380 809.967651,523.835144 
	C809.824829,520.675598 809.857300,517.500000 809.980896,514.338135 
	C810.297363,506.242310 816.551697,500.234741 824.507446,500.278015 
	C832.476746,500.321350 838.565002,506.300842 838.883789,514.483276 
	C839.000549,517.479187 839.193054,520.505676 838.908447,523.475830 
	C838.485840,527.887207 840.461121,529.175842 844.473145,528.549011 
	C845.616577,528.370300 846.803650,528.393433 847.966980,528.433167 
	C855.074890,528.675720 859.891846,533.331787 860.266235,540.283020 
	C860.662903,547.648865 856.497559,553.050232 849.528687,554.206665 
	C838.776978,555.990906 838.784180,555.990784 838.846313,566.946167 
	C838.886902,574.112366 838.867371,581.278992 838.941528,588.444763 
	C838.999390,594.036926 840.191589,595.090332 845.877197,594.823425 
	C846.376404,594.799927 846.874390,594.750732 847.373230,594.718140 
	C855.767883,594.169739 860.285339,597.140808 861.445007,603.972046 
	C862.652100,611.082642 858.611206,618.993225 851.654846,619.713745 
	C842.859436,620.624756 833.724243,620.381470 824.984619,619.027954 
	C818.084290,617.959290 813.843140,612.156677 811.403931,605.031738 
	C811.416687,600.627686 811.064087,596.861023 811.030823,593.091492 
	C810.945618,583.440186 811.054932,573.787109 810.953735,564.136108 
	C810.935669,562.413147 810.281006,560.696716 809.920288,558.977295 
z"/>
<path fill="#E6993E" opacity="1.000000" stroke="none" 
	d="
M467.234375,513.053101 
	C457.260834,510.024719 453.518677,499.592468 455.352875,489.132507 
	C460.616089,459.117737 492.702850,432.505096 528.740845,451.835114 
	C540.614563,458.203949 549.408325,467.967346 552.432495,481.801147 
	C552.644592,482.771362 552.962524,483.815125 552.801575,484.750793 
	C552.420959,486.963501 551.781494,489.131683 551.246704,491.317871 
	C549.496582,490.351227 547.491455,489.670929 546.035217,488.374207 
	C528.996948,473.202118 499.533966,477.403748 489.094086,502.637665 
	C484.585571,513.535034 479.179474,516.036987 467.234375,513.053101 
z"/>
<path fill="#3B6B72" opacity="1.000000" stroke="none" 
	d="
M786.154907,542.672119 
	C784.384277,552.497375 779.317688,557.284485 770.242432,558.061523 
	C757.402649,559.161011 751.756897,564.967163 751.406128,577.876587 
	C751.148315,587.362549 751.317810,596.859436 751.141418,606.348572 
	C750.975830,615.255188 744.967041,621.126526 736.328613,621.070740 
	C728.109375,621.017761 722.203064,614.999573 722.153259,606.289429 
	C722.032471,585.142273 722.023193,563.994385 722.002014,542.846802 
	C721.994812,535.630493 725.765625,530.381592 732.134949,528.560181 
	C738.388672,526.771790 744.316528,529.249023 748.312683,535.304321 
	C748.760315,535.982727 749.279175,536.614197 750.123535,537.749512 
	C752.101196,536.448486 753.838501,534.917114 755.860840,534.052063 
	C760.834351,531.924622 765.803284,529.082947 771.021484,528.389282 
	C779.706055,527.234619 785.584595,533.240845 786.154907,542.672119 
z"/>
<path fill="#3B6B72" opacity="1.000000" stroke="none" 
	d="
M120.823082,611.373047 
	C120.498169,614.762146 122.081383,615.822632 124.859001,616.220764 
	C125.994583,616.383545 126.959824,617.734863 128.002563,618.545471 
	C126.793709,619.154175 125.638298,620.116211 124.366470,620.308533 
	C119.622276,621.026001 116.750916,618.788879 115.673485,614.178772 
	C115.265404,612.432617 114.927261,610.670105 113.234314,608.212524 
	C112.180252,610.257019 109.984062,612.575439 110.390419,614.269714 
	C110.804405,615.995728 113.778954,617.107544 115.681145,618.524658 
	C110.712837,622.335632 106.071495,620.906738 104.931885,615.324768 
	C104.002930,610.774597 102.840096,606.253052 106.546921,602.094177 
	C107.414490,601.120911 107.217056,598.887268 106.992615,597.306946 
	C106.147629,591.357361 106.413780,585.324707 100.491516,580.855957 
	C96.437737,577.797058 95.759018,572.161255 96.970940,566.989807 
	C97.406258,565.132324 98.340866,563.086609 99.703087,561.847168 
	C100.811661,560.838501 102.898384,560.904907 104.551346,560.494629 
	C104.303841,562.081177 104.593071,564.118591 103.709305,565.170654 
	C100.931618,568.477112 100.940544,571.777893 102.719254,575.361572 
	C105.603317,581.172363 108.307487,581.904907 114.552612,580.224243 
	C119.476379,578.899170 124.672745,578.279846 129.782379,578.018311 
	C139.569977,577.517578 142.409180,575.524353 145.270660,565.937988 
	C147.710312,557.764771 155.793610,554.937317 162.799759,559.715515 
	C163.972809,560.515564 165.499619,560.782227 166.829330,561.371277 
	C168.218918,561.987000 170.604340,562.559998 170.711990,563.390503 
	C170.916122,564.965393 170.283936,567.276917 169.129013,568.254944 
	C167.323761,569.783630 164.885666,570.874878 162.548431,571.384766 
	C159.807709,571.982666 158.305908,573.062500 158.579559,575.952332 
	C159.224197,582.759949 156.790253,588.924072 155.298172,595.391968 
	C153.955673,601.211487 155.699005,607.779419 156.376846,613.984985 
	C156.467697,614.816772 158.374481,615.369751 159.286453,616.217468 
	C160.035202,616.913452 160.555222,617.855591 161.176620,618.688599 
	C160.290497,619.229309 159.449860,620.123657 158.509781,620.244629 
	C155.666260,620.610229 152.687164,621.196533 149.949066,620.686584 
	C147.914429,620.307678 145.203156,618.747620 144.504715,617.021240 
	C143.097549,613.543030 142.600128,609.618774 142.219116,605.829102 
	C141.931915,602.972656 141.063812,601.717102 138.000122,601.753174 
	C134.196671,601.797852 130.386917,601.307800 126.391167,601.035828 
	C124.569695,604.335022 122.736916,607.654602 120.823082,611.373047 
z"/>
<path fill="#E6993E" opacity="1.000000" stroke="none" 
	d="
M893.758606,577.389160 
	C896.766357,578.861511 899.414368,580.233704 902.175049,581.319336 
	C909.065796,584.029236 915.019592,587.605103 917.389282,595.308350 
	C917.699951,596.318054 919.918274,597.751038 920.572021,597.459717 
	C922.716309,596.504211 925.245117,595.229065 926.287170,593.338684 
	C927.197693,591.687073 926.430237,589.018921 926.112915,586.842407 
	C926.027588,586.257507 924.571228,585.960815 924.285156,585.298218 
	C923.720581,583.990784 923.533997,582.520142 923.191162,581.116943 
	C924.762085,581.014465 926.721069,580.258423 927.837646,580.921326 
	C933.011230,583.992737 933.191345,595.483276 928.221741,600.103943 
	C926.795044,601.430481 925.013245,603.031189 923.256531,603.219177 
	C918.657715,603.711426 918.175964,606.058777 919.341125,609.729736 
	C919.591370,610.518066 919.674744,611.360352 919.822083,612.180176 
	C921.106995,619.329773 919.225952,621.327759 912.021912,620.793945 
	C908.709961,620.548645 905.361206,620.806458 902.047791,620.572144 
	C900.364075,620.453125 898.721619,619.749084 895.839478,618.986267 
	C898.746887,617.065979 900.296692,616.042358 901.993469,614.921692 
	C900.303589,612.902283 898.877747,611.198425 897.451904,609.494629 
	C896.951965,609.651367 896.452026,609.808105 895.952087,609.964844 
	C895.637634,611.739319 895.231445,613.503357 895.026367,615.290344 
	C894.464417,620.189819 890.548950,622.445557 886.116272,620.562256 
	C884.950500,620.066895 883.457703,620.242859 882.119202,620.276550 
	C880.311279,620.322021 878.453674,620.816162 876.733276,620.495667 
	C876.191040,620.394653 875.349487,617.675354 875.783936,617.203979 
	C880.725159,611.841614 882.282776,605.696594 878.342102,599.303101 
	C874.271851,592.699402 874.158142,586.158630 875.894470,579.183655 
	C876.536255,576.605408 876.658691,575.208069 873.502197,573.945679 
	C871.371399,573.093445 869.306641,570.113220 868.874207,567.777161 
	C868.646118,566.545288 871.835815,564.451355 873.737122,563.106995 
	C876.764587,560.966309 880.004944,559.126770 882.897766,557.320618 
	C884.950623,557.681458 887.188354,558.074829 890.559143,558.667358 
	C890.559143,560.583069 890.943115,563.471252 890.470215,566.211426 
	C889.738464,570.451050 890.156677,574.130737 893.758606,577.389160 
M887.284119,616.171448 
	C890.699280,613.842529 889.479858,611.320129 888.494324,608.807495 
	C887.776611,608.781555 887.058899,608.755615 886.341187,608.729736 
	C886.341187,611.177307 886.341187,613.624939 887.284119,616.171448 
z"/>
<path fill="#E6993E" opacity="1.000000" stroke="none" 
	d="
M514.331055,390.400299 
	C525.804688,375.034790 546.315247,374.703674 555.656250,389.450928 
	C566.519409,406.601349 554.519592,432.230072 534.373352,434.905823 
	C524.900269,436.164032 517.276611,431.297791 512.833740,420.878174 
	C508.475311,410.656555 508.611145,400.536652 514.331055,390.400299 
M533.940491,403.243286 
	C533.047668,400.158081 533.016663,395.574005 528.422241,396.492249 
	C524.074829,397.361115 523.501099,401.825836 524.288391,405.474487 
	C525.115723,409.308838 526.783630,413.040955 528.628906,416.529602 
	C529.202393,417.613861 532.098877,418.696899 532.994629,418.174255 
	C537.235657,415.699707 541.551392,413.069397 544.989136,409.640961 
	C546.376404,408.257477 545.590027,404.694427 545.792908,402.123260 
	C543.224304,402.309143 540.641418,402.387238 538.092896,402.724640 
	C536.739441,402.903839 535.445496,403.532684 533.940491,403.243286 
z"/>
<path fill="#E6993E" opacity="1.000000" stroke="none" 
	d="
M496.278687,391.814880 
	C501.709290,403.033356 501.111847,413.867737 495.210999,424.150269 
	C488.344330,436.115784 479.175751,438.359436 466.951721,431.789246 
	C455.228668,425.488312 447.641815,410.132782 450.352295,398.192596 
	C452.660950,388.022552 460.055695,380.679352 469.636383,378.935059 
	C481.483856,376.778107 489.903442,381.772369 496.278687,391.814880 
M469.724274,413.801819 
	C471.935822,415.266998 474.038147,416.961029 476.408875,418.092773 
	C477.463470,418.596191 480.063324,418.327148 480.254761,417.794861 
	C482.299133,412.110016 484.275055,406.361755 485.558350,400.475800 
	C485.805542,399.342133 483.117950,396.582764 481.509460,396.331390 
	C480.136505,396.116852 478.149994,398.231934 476.851868,399.688232 
	C475.962585,400.685822 475.788605,402.321075 475.108337,404.181427 
	C473.624115,402.956879 472.648712,401.608459 471.384857,401.234192 
	C469.388000,400.642944 466.465179,399.792725 465.287750,400.737976 
	C464.017609,401.757721 463.455505,405.042450 464.112579,406.751617 
	C465.069458,409.240631 467.392944,411.204315 469.724274,413.801819 
z"/>
<path fill="#E6993E" opacity="1.000000" stroke="none" 
	d="
M449.739716,431.250549 
	C455.430176,438.551208 457.807556,446.495117 456.783752,455.322876 
	C455.200836,468.971924 443.265442,476.800476 428.499176,473.724426 
	C417.450500,471.422821 410.031311,464.707336 407.099548,453.783447 
	C404.354858,443.556427 406.537994,434.483612 414.614960,427.016937 
	C424.302917,418.061005 439.707489,419.677399 449.739716,431.250549 
M440.863922,443.039093 
	C439.787964,439.892670 438.890869,435.771545 434.784088,436.313538 
	C428.513824,437.141052 432.366364,443.234009 430.341614,446.716003 
	C429.316589,446.447723 428.186218,446.266907 427.145813,445.857544 
	C424.234161,444.711914 420.883636,444.405670 420.063812,447.734711 
	C419.575165,449.718933 421.253632,453.547913 423.052002,454.516937 
	C427.040283,456.665863 431.676453,457.693451 436.130280,458.867706 
	C438.906219,459.599548 440.690063,458.076202 440.844391,455.246185 
	C441.051117,451.454865 440.967682,447.647675 440.863922,443.039093 
z"/>
<path fill="#E06438" opacity="1.000000" stroke="none" 
	d="
M588.375427,471.412109 
	C579.563477,475.191589 570.788452,477.159698 563.045105,470.717255 
	C555.393433,464.351227 553.569824,455.399323 555.009460,445.768127 
	C557.322388,430.294586 571.360962,418.946198 585.009949,421.474182 
	C594.561829,423.243286 600.949829,428.820404 603.819275,438.004608 
	C607.025391,448.266296 604.564148,457.461853 597.099121,465.094421 
	C594.708679,467.538574 591.524902,469.206848 588.375427,471.412109 
M588.269287,444.269867 
	C585.645203,445.090210 583.021179,445.910553 579.917847,446.880737 
	C579.917847,445.038544 580.332581,443.280823 579.819580,441.857452 
	C579.069519,439.776367 577.653809,437.935242 576.521790,435.991821 
	C574.589905,437.466400 571.164795,438.791351 570.999329,440.442963 
	C570.449646,445.928955 570.982117,451.538513 571.358215,457.083160 
	C571.405823,457.785431 573.024536,458.982574 573.856873,458.934631 
	C580.285522,458.564667 586.433777,457.177460 590.676758,451.769653 
	C592.937683,448.888031 592.614746,446.212341 588.269287,444.269867 
z"/>
<path fill="#E06438" opacity="1.000000" stroke="none" 
	d="
M264.950867,502.649384 
	C260.448608,500.479828 256.038177,497.506866 251.200409,495.643036 
	C246.510147,493.835968 241.414413,492.369781 236.437592,492.160370 
	C224.636856,491.663910 212.800964,491.975891 200.979431,492.008728 
	C191.253677,492.035736 184.111877,498.624634 184.065048,508.339020 
	C183.907715,540.972595 183.959366,573.607544 184.042709,606.241638 
	C184.058731,612.517822 192.270294,620.035889 198.574448,619.973206 
	C204.898407,619.910400 212.822800,612.197876 212.960526,605.704712 
	C213.112335,598.548340 212.573700,591.348267 213.207458,584.244995 
	C213.469925,581.303223 211.721329,575.643372 218.662445,576.567261 
	C215.186035,577.565002 214.490570,580.346497 214.494293,583.573975 
	C214.502350,590.567932 214.623489,597.563538 214.508057,604.555359 
	C214.352509,613.976501 207.493103,621.131104 198.810043,621.144714 
	C189.289978,621.159607 182.391068,614.683716 182.325882,604.877441 
	C182.110062,572.405579 182.055252,539.932007 182.131134,507.459473 
	C182.151443,498.769806 188.386612,491.214569 197.103012,490.909912 
	C212.535263,490.370544 228.046051,490.509949 243.453995,491.478577 
	C251.646576,491.993561 258.980408,496.217651 264.950867,502.649384 
z"/>
<path fill="#E8A398" opacity="1.000000" stroke="none" 
	d="
M904.903442,522.973816 
	C902.173584,527.156311 900.114746,531.848022 896.541199,534.494507 
	C892.417847,537.548218 887.083862,539.229797 882.039551,540.694214 
	C877.996704,541.867920 876.017456,539.375732 877.752686,535.773804 
	C881.733154,527.511169 887.591003,521.115662 896.830933,518.767334 
	C900.328552,517.878479 903.948547,517.650879 904.903442,522.973816 
z"/>
<path fill="#E8A398" opacity="1.000000" stroke="none" 
	d="
M144.922760,535.123047 
	C143.106827,533.170898 141.114243,531.666382 140.167801,529.666626 
	C139.336746,527.910706 138.854416,525.085571 139.732925,523.678528 
	C140.613937,522.267517 143.365387,521.398010 145.303207,521.387146 
	C151.874176,521.350281 162.827042,531.403931 163.939331,537.981323 
	C164.567337,541.694885 162.420593,542.713379 159.646378,541.702332 
	C154.715134,539.905090 150.004013,537.503906 144.922760,535.123047 
z"/>
<path fill="#E6993E" opacity="1.000000" stroke="none" 
	d="
M880.741943,516.754395 
	C877.580261,518.638245 874.697571,520.302795 871.679321,522.045593 
	C868.201355,512.750793 873.040527,501.547974 881.117981,498.307495 
	C885.799683,496.429291 889.241882,498.801208 887.772888,503.630402 
	C886.384644,508.194275 883.338074,512.253723 880.741943,516.754395 
z"/>
<path fill="#E06438" opacity="1.000000" stroke="none" 
	d="
M169.457611,519.552063 
	C168.920502,523.210449 167.184875,523.743164 164.490173,522.201660 
	C158.693604,518.885681 154.732162,514.111694 153.633057,507.455811 
	C153.348938,505.735321 153.859879,503.027893 155.030487,502.166382 
	C156.173721,501.324982 158.950027,501.683990 160.448608,502.520630 
	C166.860672,506.100311 169.452896,511.994659 169.457611,519.552063 
z"/>
<path fill="#E06438" opacity="1.000000" stroke="none" 
	d="
M267.534607,561.109131 
	C267.502289,559.861389 267.525848,558.372253 268.085876,557.123657 
	C269.804108,553.292603 272.626068,549.726868 273.394012,545.744690 
	C275.270142,536.015625 275.587372,526.071106 271.921051,516.608826 
	C270.171478,512.093384 267.400330,507.973846 265.063049,503.313446 
	C267.118591,505.690918 269.877533,508.144836 271.175415,511.216187 
	C278.387909,528.283936 278.922302,545.063354 267.534607,561.109131 
z"/>
<path fill="#E06438" opacity="1.000000" stroke="none" 
	d="
M223.464905,576.696777 
	C223.910172,576.070862 224.818573,575.070068 225.717194,575.078796 
	C236.693497,575.185120 247.352509,573.728149 257.832092,569.180237 
	C251.610413,571.581238 245.129517,574.483459 238.344650,576.143188 
	C233.759155,577.264832 228.745605,576.636536 223.464905,576.696777 
z"/>
<path fill="#3B6B72" opacity="1.000000" stroke="none" 
	d="
M809.841003,559.442200 
	C810.281006,560.696716 810.935669,562.413147 810.953735,564.136108 
	C811.054932,573.787109 810.945618,583.440186 811.030823,593.091492 
	C811.064087,596.861023 811.416687,600.627686 811.377319,604.681152 
	C810.667542,602.217529 809.835754,599.472656 809.804504,596.718567 
	C809.665222,584.449463 809.754883,572.177856 809.841003,559.442200 
z"/>
<path fill="#E06438" opacity="1.000000" stroke="none" 
	d="
M258.484436,569.208923 
	C259.610260,567.888062 261.075989,566.520447 262.899353,565.201904 
	C261.779449,566.554688 260.301910,567.858459 258.484436,569.208923 
z"/>
<path fill="#E06438" opacity="1.000000" stroke="none" 
	d="
M263.434265,565.180420 
	C263.339874,564.931458 263.523132,564.625854 263.976379,564.255310 
	C264.068237,564.501465 263.890076,564.812622 263.434265,565.180420 
z"/>
<path fill="#E06438" opacity="1.000000" stroke="none" 
	d="
M264.490601,564.225342 
	C264.381500,563.958557 264.552338,563.645081 264.998077,563.273743 
	C265.105499,563.536804 264.937988,563.857727 264.490601,564.225342 
z"/>
<path fill="#E06438" opacity="1.000000" stroke="none" 
	d="
M265.493835,563.197205 
	C265.384949,562.946106 265.549164,562.629150 265.981628,562.231689 
	C266.088898,562.477966 265.927917,562.804626 265.493835,563.197205 
z"/>
<path fill="#E06438" opacity="1.000000" stroke="none" 
	d="
M266.429077,562.168640 
	C266.337219,561.931824 266.517578,561.619995 266.964539,561.223267 
	C267.054565,561.456787 266.877930,561.775208 266.429077,562.168640 
z"/>
<path fill="#F2EDE7" opacity="1.000000" stroke="none" 
	d="
M231.057785,549.247925 
	C227.139832,549.417542 223.645447,549.534424 220.151840,549.670654 
	C216.657822,549.806946 214.826691,548.165955 214.783798,544.645447 
	C214.698547,537.649475 214.626862,530.653320 214.565689,523.657104 
	C214.529556,519.525085 216.436752,517.535645 220.722229,517.810730 
	C223.709671,518.002502 226.720810,517.787231 229.718979,517.856689 
	C238.882919,518.068787 244.253876,523.029602 244.831009,531.747864 
	C245.451874,541.126404 240.443634,547.675293 231.057785,549.247925 
z"/>
<path fill="#E06438" opacity="1.000000" stroke="none" 
	d="
M189.477295,499.462891 
	C189.520599,499.439362 189.433990,499.486389 189.477295,499.462891 
z"/>
<path fill="#F4E7DA" opacity="1.000000" stroke="none" 
	d="
M325.319611,594.108032 
	C322.598724,596.717773 320.402405,599.666443 317.465973,601.151794 
	C310.920929,604.462097 304.528198,600.242981 304.248169,592.940796 
	C303.946442,585.074463 313.410706,578.010925 320.891052,580.519531 
	C325.857513,582.185181 327.587860,587.155701 325.319611,594.108032 
z"/>
<path fill="#F2EDE7" opacity="1.000000" stroke="none" 
	d="
M664.340698,591.337769 
	C666.625244,583.599792 671.479980,579.855957 678.403198,580.053406 
	C682.690308,580.175659 685.128723,582.467590 686.050842,586.480042 
	C687.596985,593.207947 682.338684,600.929993 675.523804,602.051819 
	C668.761658,603.164978 665.128296,599.822754 664.340698,591.337769 
z"/>
<path fill="#F2EDE7" opacity="1.000000" stroke="none" 
	d="
M886.812622,616.122009 
	C886.341187,613.624939 886.341187,611.177307 886.341187,608.729736 
	C887.058899,608.755615 887.776611,608.781555 888.494324,608.807495 
	C889.479858,611.320129 890.699280,613.842529 886.812622,616.122009 
z"/>
<path fill="#F4E7DA" opacity="1.000000" stroke="none" 
	d="
M534.032593,403.600952 
	C535.445496,403.532684 536.739441,402.903839 538.092896,402.724640 
	C540.641418,402.387238 543.224304,402.309143 545.792847,402.123291 
	C545.590027,404.694427 546.376404,408.257477 544.989136,409.640961 
	C541.551392,413.069397 537.235657,415.699707 532.994629,418.174255 
	C532.098877,418.696899 529.202393,417.613861 528.628906,416.529602 
	C526.783630,413.040955 525.115723,409.308838 524.288391,405.474487 
	C523.501099,401.825836 524.074829,397.361115 528.422241,396.492249 
	C533.016663,395.574005 533.047668,400.158081 534.032593,403.600952 
z"/>
<path fill="#F4E7DA" opacity="1.000000" stroke="none" 
	d="
M469.429016,413.596893 
	C467.392944,411.204315 465.069458,409.240631 464.112579,406.751617 
	C463.455505,405.042450 464.017609,401.757721 465.287750,400.737976 
	C466.465179,399.792725 469.388000,400.642944 471.384857,401.234192 
	C472.648712,401.608459 473.624115,402.956879 475.108337,404.181427 
	C475.788605,402.321075 475.962585,400.685822 476.851868,399.688232 
	C478.149994,398.231934 480.136505,396.116852 481.509460,396.331390 
	C483.117950,396.582764 485.805542,399.342133 485.558350,400.475800 
	C484.275055,406.361755 482.299133,412.110016 480.254761,417.794861 
	C480.063324,418.327148 477.463470,418.596191 476.408875,418.092773 
	C474.038147,416.961029 471.935822,415.266998 469.429016,413.596893 
z"/>
<path fill="#F4E7DA" opacity="1.000000" stroke="none" 
	d="
M440.936401,443.443207 
	C440.967682,447.647675 441.051117,451.454865 440.844391,455.246185 
	C440.690063,458.076202 438.906219,459.599548 436.130280,458.867706 
	C431.676453,457.693451 427.040283,456.665863 423.052002,454.516937 
	C421.253632,453.547913 419.575165,449.718933 420.063812,447.734711 
	C420.883636,444.405670 424.234161,444.711914 427.145813,445.857544 
	C428.186218,446.266907 429.316589,446.447723 430.341614,446.716003 
	C432.366364,443.234009 428.513824,437.141052 434.784088,436.313538 
	C438.890869,435.771545 439.787964,439.892670 440.936401,443.443207 
z"/>
<path fill="#F4E7DA" opacity="1.000000" stroke="none" 
	d="
M588.631592,444.382751 
	C592.614746,446.212341 592.937683,448.888031 590.676758,451.769653 
	C586.433777,457.177460 580.285522,458.564667 573.856873,458.934631 
	C573.024536,458.982574 571.405823,457.785431 571.358215,457.083160 
	C570.982117,451.538513 570.449646,445.928955 570.999329,440.442963 
	C571.164795,438.791351 574.589905,437.466400 576.521790,435.991821 
	C577.653809,437.935242 579.069519,439.776367 579.819580,441.857452 
	C580.332581,443.280823 579.917847,445.038544 579.917847,446.880737 
	C583.021179,445.910553 585.645203,445.090210 588.631592,444.382751 
z"/>
</svg>